PathFileType	4	(X/Y/Z)	C:\Users\chris\Documents\GitHub\baseballds\vids\pitch1_Sports2D\pitch1_Sports2D_px_person00.trc
DataRate	CameraRate	NumFrames	NumMarkers	Units	OrigDataRate	OrigDataStartFrame	OrigNumFrames
30	30	9	22	m	30	134	154
Frame#	Time	Hip			RHip			RKnee			RAnkle			RBigToe			RSmallToe			RHeel			LHip			LKnee			LAnkle			LBigToe			LSmallToe			LHeel			Neck			Head			Nose			RShoulder			RElbow			RWrist			LShoulder			LElbow			LWrist		
		X1	Y1	Z1	X2	Y2	Z2	X3	Y3	Z3	X4	Y4	Z4	X5	Y5	Z5	X6	Y6	Z6	X7	Y7	Z7	X8	Y8	Z8	X9	Y9	Z9	X10	Y10	Z10	X11	Y11	Z11	X12	Y12	Z12	X13	Y13	Z13	X14	Y14	Z14	X15	Y15	Z15	X16	Y16	Z16	X17	Y17	Z17	X18	Y18	Z18	X19	Y19	Z19	X20	Y20	Z20	X21	Y21	Z21	X22	Y22	Z22
134	4.466666666666667	1335.8254892537352	537.2715439096564	0.0	1365.9168772149233	557.1671303933186	0.0	1268.6022424241992	763.5423749475777	0.0	1066.6449383878705	698.2388419475096	0.0	967.9271940659258	750.8239047930679	0.0	976.5275227383481	743.9800845798941	0.0	1043.2452264280453	662.740012648486	0.0	1292.040096270632	544.0382941056091	0.0	1354.5150383291382	773.08301678073	0.0	1382.78943870284	972.4732910175951	0.0	1466.9654212765884	1014.8759722831837	0.0	1455.0853723103792	1010.2034097525574	0.0	1361.1161686073792	1004.0875771411568	0.0	1436.6146242627603	345.10790474036776	0.0	1487.4345608281903	247.61728677310916	0.0	1502.0156140995787	322.4191536698885	0.0	1500.0167935660795	410.7194094079623	0.0	1448.3690389450228	512.0701894453866	0.0	1346.723356833099	509.6582532389404	0.0	1331.6956391085976	357.78099683968156	0.0	1229.3758372451834	413.9199292359912	0.0	1240.7632128969497	476.8755802408642	0.0
135	4.5	1344.062650339852	525.9858863624876	0.0	1376.298978578671	543.3396010568307	0.0	1290.9857993938956	741.4052510027043	0.0	1120.883373543176	659.9427999698964	0.0	1024.9276419912926	696.1359458622593	0.0	1036.3530303886394	696.4822631734514	0.0	1095.258746174839	626.0767077142585	0.0	1299.810458563913	535.3650004837932	0.0	1354.7270829451122	768.8636355920333	0.0	1381.8647879578302	970.0085888923147	0.0	1465.1960438933443	1015.0487060266958	0.0	1451.6578975663788	1010.8180006754666	0.0	1361.1209765704875	1003.7404524342084	0.0	1439.648169611235	335.87148990217804	0.0	1492.4041386718206	235.61732071658253	0.0	1506.0361084383062	311.2739073410254	0.0	1505.842665724409	397.9813524761447	0.0	1459.0679703969045	513.235076277995	0.0	1367.357489275395	510.02376377908257	0.0	1340.385787205467	343.206893491351	0.0	1228.0523886324886	386.90785125519847	0.0	1216.7478434610348	431.78670812595715	0.0
136	4.533333333333333	1346.8349626663694	523.1768503540407	0.0	1380.583415024329	536.0974795335583	0.0	1323.4631926539118	728.8526977319489	0.0	1202.3456388951327	636.4099509956128	0.0	1124.8221062492764	675.2488738251044	0.0	1134.490987920728	672.9542730253684	0.0	1173.3519131198236	609.6350177132314	0.0	1302.2689855413157	533.6251034747796	0.0	1356.3655544945857	767.5898935238106	0.0	1380.3616553650331	967.5123344848346	0.0	1461.1363410298459	1014.1915950781968	0.0	1447.2504357781609	1009.9231362458696	0.0	1361.1799531995305	1001.9715366800838	0.0	1439.9924600711788	329.2586679072116	0.0	1495.0502247241398	223.46698357496714	0.0	1505.6348985929899	300.0023270986414	0.0	1509.9717895584376	385.9222967696737	0.0	1478.1327972540691	521.622363647338	0.0	1412.6870283564147	528.8860349628072	0.0	1343.914535019161	334.4241136158277	0.0	1227.0639007435125	372.8317425614762	0.0	1205.3058956917398	395.65407345630445	0.0
137	4.566666666666666	1347.3085289389205	526.8786525151221	0.0	1382.2049025744534	534.9993948003215	0.0	1369.2029453000034	725.4056970872246	0.0	1291.2602399211814	630.7616891016919	0.0	1246.41434811606	703.0817138387301	0.0	1248.9264475905184	672.7248665535465	0.0	1263.32093192701	618.9179777607192	0.0	1302.59863884799	536.3080435778857	0.0	1357.9186566957171	768.980287438444	0.0	1378.4961391902089	965.7579499931255	0.0	1455.3026964923793	1011.7997312068001	0.0	1442.6382515028686	1008.2290502347146	0.0	1362.6237803338765	998.0425237229857	0.0	1438.2688045479717	322.82004861643816	0.0	1495.8511906512792	212.40523691875273	0.0	1503.4163690489058	290.05768649956224	0.0	1509.5655075956386	374.13292557234456	0.0	1504.8592187153108	520.2216667748967	0.0	1483.1316429353838	542.1960373452564	0.0	1343.2145652169013	328.4609734125655	0.0	1226.8218829129182	369.46310820012627	0.0	1207.1960581608585	373.5402030231254	0.0
138	4.6	1347.7597070087143	533.0684682064204	0.0	1384.516114194824	536.2332164464619	0.0	1428.8751599791985	723.3182662185466	0.0	1373.184555875744	644.5193358140007	0.0	1367.2058883045347	771.360570424237	0.0	1365.1307122859353	697.4171809141671	0.0	1353.0124121959686	649.168830244297	0.0	1303.818153951697	540.6627704680736	0.0	1359.6301143853027	770.4345319813849	0.0	1377.599433441679	964.4000926708876	0.0	1451.2311172973812	1009.9550928550673	0.0	1439.5593633549522	1007.3706384964485	0.0	1365.8867296640083	993.4616842329547	0.0	1434.9930418797535	315.98496757408793	0.0	1494.0326598289762	203.4026262703856	0.0	1500.6684041176522	282.3050820368626	0.0	1504.0267533164438	362.846171937671	0.0	1534.5564668390582	506.1059296525236	0.0	1571.0547143639915	541.3486534351094	0.0	1340.3682260334963	324.58049192604847	0.0	1224.330908192673	375.9501813530667	0.0	1218.5976093155064	365.37568238275844	0.0
139	4.633333333333333	1348.1519662754579	537.5113368523373	0.0	1387.7869849283916	535.5186362567301	0.0	1491.6893853341176	714.4107267961333	0.0	1450.1158230398723	681.6329311212577	0.0	1482.497817249735	851.7314720800639	0.0	1486.8067445873676	759.0999518282536	0.0	1436.9596493061133	694.3686180261174	0.0	1306.3442812294952	544.9367399725768	0.0	1362.1726579304727	770.1352643266948	0.0	1377.8696310714329	963.267420914898	0.0	1450.7278991983762	1010.4059871681782	0.0	1438.0909480869227	1007.8612077643141	0.0	1368.046392498162	990.7289806737792	0.0	1430.7917290989976	310.2104534936079	0.0	1489.6728404402616	197.80238304169185	0.0	1497.8275344155	277.3575340658663	0.0	1495.5161155896594	353.4140223718934	0.0	1560.531623966172	487.0831739899968	0.0	1654.2765626951796	523.8711243045337	0.0	1337.0248312487379	323.55260718030206	0.0	1220.4769601096036	388.73418212071505	0.0	1238.970589574574	367.86652276869586	0.0
140	4.666666666666667	1348.1937005339419	538.6558300417062	0.0	1390.7611500279113	532.6480128621197	0.0	1541.194254861467	699.0749112269051	0.0	1527.4649915199752	741.077671482495	0.0	1597.5076258315637	911.823716468797	0.0	1610.6198174974043	844.4256566952903	0.0	1513.726841065779	755.0000914832885	0.0	1309.3584312172707	548.557160990419	0.0	1364.8296191568397	768.7372712938699	0.0	1378.1491320029568	963.4977654555233	0.0	1451.4282170851661	1010.9831029121096	0.0	1436.0147939026272	1008.3285024471473	0.0	1366.7964012434861	991.3806143641177	0.0	1425.9889120470127	305.59334127332795	0.0	1483.949422711938	196.00257303319722	0.0	1495.6372087321263	275.6769157112295	0.0	1485.6832755794335	345.52902709404555	0.0	1578.2994484261278	468.1868122219448	0.0	1711.8192538870594	490.5932083592347	0.0	1334.0478029718627	325.21384478269226	0.0	1220.9136893188697	402.3215499560777	0.0	1268.787576257142	375.864651043502	0.0
141	4.7	1349.1915029033726	537.994927055692	0.0	1393.9730639543427	530.7608919912293	0.0	1571.1343861173732	684.0553311092739	0.0	1599.6323270010384	807.179247020257	0.0	1704.5999719213648	934.90989382143	0.0	1713.8204200177684	908.1277267909976	0.0	1581.7886715585519	824.6653749654506	0.0	1313.0615741282602	551.8169207367407	0.0	1366.8289492273166	768.4635035626192	0.0	1377.602068678583	966.1531695033149	0.0	1450.800274961641	1009.1478515362966	0.0	1432.3408834579577	1007.7139855335171	0.0	1363.858915846819	994.8256815007112	0.0	1420.8243649050569	300.4532790739325	0.0	1477.5250232035123	196.44897404435483	0.0	1494.2997192519142	276.1793702868403	0.0	1474.432546827434	337.6113907513548	0.0	1586.0678862254908	447.9240198433581	0.0	1738.3534796107717	447.9529854610605	0.0	1331.4472522982248	328.48073915160904	0.0	1230.5276013935231	414.327456249609	0.0	1303.5000276973954	387.3009523540562	0.0
142	4.733333333333333	1352.6161626304636	537.7092476051539	0.0	1399.20729114246	531.8004276650305	0.0	1585.5568118379467	673.5970684653439	0.0	1653.8100844285837	854.5521589697166	0.0	1778.0383935436075	924.1586715227604	0.0	1775.2681739250456	924.1254317259696	0.0	1635.8841168772187	880.3080807945818	0.0	1318.0157105708713	554.9422855954268	0.0	1369.2782412526803	770.5978603860473	0.0	1376.462793597848	969.7776620474482	0.0	1449.0898109050254	1006.1177166852995	0.0	1428.93455577118	1006.4248493203861	0.0	1361.942787807554	997.9781781201827	0.0	1416.5478325089216	294.55169217068124	0.0	1470.0528423727858	197.8304027749826	0.0	1492.9101602487283	276.63286609150896	0.0	1462.319621147756	329.9480668928805	0.0	1584.6425480041646	424.5305075437512	0.0	1741.101712719883	404.08907287337485	0.0	1329.956496555038	331.44194502504536	0.0	1252.3479745449197	425.0717560164869	0.0	1339.1174233897586	408.93973250935034	0.0
